<?xml version="1.0" encoding="UTF-8"?>
<svg id="uuid-1459f135-a20c-47e2-9229-9768e361819b" data-name="Layer 1" xmlns="http://www.w3.org/2000/svg" viewBox="0 0 83.3 98.25">
  <defs>
    <style>
      .uuid-5a31d324-d1c4-4b84-846d-2bb2fb4cfa11 {
        fill: #fff;
      }

      .uuid-5a31d324-d1c4-4b84-846d-2bb2fb4cfa11, .uuid-12dbc773-a3ac-4d6b-8526-5c37c46a2fdd, .uuid-f38a7335-1457-4d55-a66e-4661e02f7e11, .uuid-67be0750-3c17-4e43-b47b-aa25eb45ce6c {
        stroke-width: 0px;
      }

      .uuid-12dbc773-a3ac-4d6b-8526-5c37c46a2fdd {
        fill: #fff;
      }

      .uuid-f38a7335-1457-4d55-a66e-4661e02f7e11 {
        fill: #fff;
      }

      .uuid-67be0750-3c17-4e43-b47b-aa25eb45ce6c {
        fill: #eab308
      ;
      }
    </style>
  </defs>
  <g>
    <path class="uuid-f38a7335-1457-4d55-a66e-4661e02f7e11" d="m56.94,47.99c8.59-8.58,8.59-22.54,0-31.12-7.71-7.72-19.78-8.5-28.37-2.33l-7.31-7.31c12.65-10.12,31.21-9.32,42.92,2.4,9.68,9.67,11.9,24.02,6.69,35.85l4.32,20.76-18.25-18.25Z"/>
    <path class="uuid-67be0750-3c17-4e43-b47b-aa25eb45ce6c" d="m61.04,59.56c-12.63,9.75-30.89,8.83-42.47-2.75-9.61-9.61-11.87-23.83-6.79-35.61L7.37,0l11.2,11.21,7.25,7.24c-8.59,8.58-8.59,22.54,0,31.12,7.58,7.58,19.35,8.47,27.9,2.66l7.32,7.33Z"/>
  </g>
  <g>
    <path class="uuid-12dbc773-a3ac-4d6b-8526-5c37c46a2fdd" d="m9.83,75.65l-.98,1.97c-.53-.53-1.38-.8-2.56-.8-1.12,0-2.03.47-2.74,1.41-.71.94-1.07,2.12-1.07,3.55s.33,2.57.99,3.41,1.54,1.26,2.65,1.26c1.26,0,2.25-.45,2.96-1.35l1.11,1.92c-.97,1.03-2.39,1.55-4.26,1.55s-3.33-.62-4.37-1.85C.52,85.49,0,83.81,0,81.68,0,79.7.57,78.04,1.72,76.71c1.15-1.33,2.62-2,4.41-2,1.54,0,2.77.31,3.69.94Z"/>
    <path class="uuid-12dbc773-a3ac-4d6b-8526-5c37c46a2fdd" d="m11.46,81.53c0-1.91.52-3.52,1.57-4.84,1.05-1.32,2.44-1.98,4.2-1.98,1.93,0,3.4.6,4.42,1.79,1.02,1.2,1.53,2.87,1.53,5.03s-.53,3.87-1.6,5.14c-1.06,1.27-2.58,1.9-4.53,1.9-1.8,0-3.18-.63-4.14-1.88-.96-1.26-1.44-2.98-1.44-5.16Zm2.47,0c0,1.57.27,2.78.8,3.64.53.86,1.3,1.29,2.31,1.29,1.19,0,2.1-.42,2.72-1.26.62-.84.94-2.06.94-3.67,0-3.14-1.16-4.71-3.48-4.71-1.06,0-1.88.43-2.44,1.28-.57.85-.85,2-.85,3.44Z"/>
    <path class="uuid-12dbc773-a3ac-4d6b-8526-5c37c46a2fdd" d="m37.78,88.35h-2.31l-1.39-7.23-2.7,7.4h-.85l-2.7-7.4-1.45,7.23h-2.3l2.7-13.41h1.26l2.9,9.03,2.84-9.03h1.25l2.74,13.41Z"/>
    <path class="uuid-12dbc773-a3ac-4d6b-8526-5c37c46a2fdd" d="m41.62,83.41v4.93h-2.38v-13.39c1.59-.07,2.51-.1,2.78-.1,2.12,0,3.66.32,4.64.97.98.65,1.47,1.66,1.47,3.04,0,3.07-1.81,4.61-5.43,4.61-.27,0-.63-.02-1.08-.06Zm0-6.4v4.29c.4.04.72.06.95.06,1.09,0,1.88-.18,2.38-.54s.75-.95.75-1.77c0-1.39-1.12-2.09-3.36-2.09-.25,0-.49.02-.72.05Z"/>
    <path class="uuid-12dbc773-a3ac-4d6b-8526-5c37c46a2fdd" d="m56.67,88.34l-.98-2.72h-4.59l-.93,2.72h-2.64l5.34-13.59h1.04l5.39,13.59h-2.63Zm-3.28-9.49l-1.61,4.95h3.22l-1.61-4.95Z"/>
    <path class="uuid-12dbc773-a3ac-4d6b-8526-5c37c46a2fdd" d="m69.51,88.53l-6.5-8.48v8.31h-2.29v-13.41h1.14l6.33,8.09v-8.09h2.29v13.59h-.97Z"/>
    <path class="uuid-12dbc773-a3ac-4d6b-8526-5c37c46a2fdd" d="m78.79,82.85v5.5h-2.38v-5.5l-4.52-7.91h2.53l3.17,5.72,3.18-5.72h2.52l-4.5,7.91Z"/>
  </g>
  <g>
    <path class="uuid-5a31d324-d1c4-4b84-846d-2bb2fb4cfa11" d="m9.12,93.14v5.01h-.78v-5.01h-1.82v-.7h4.5v.7h-1.9Z"/>
    <path class="uuid-5a31d324-d1c4-4b84-846d-2bb2fb4cfa11" d="m15.75,98.15l-.39-1.21h-2.13l-.42,1.21h-.87l2.32-5.79h.21l2.15,5.79h-.87Zm-1.43-4.3l-.89,2.52h1.7l-.81-2.52Z"/>
    <path class="uuid-5a31d324-d1c4-4b84-846d-2bb2fb4cfa11" d="m22.77,92.83l-.32.64c-.39-.29-.78-.44-1.16-.44-.6,0-1.07.21-1.42.63-.35.42-.52.98-.52,1.67s.17,1.19.51,1.6c.34.4.8.61,1.39.61.42,0,.75-.13,1.01-.38v-1.34h-.79v-.66h1.57v2.49c-.21.18-.5.32-.87.43-.37.11-.73.16-1.08.16-.79,0-1.41-.27-1.87-.8-.46-.54-.69-1.25-.69-2.13s.25-1.6.75-2.15c.5-.55,1.18-.83,2.03-.83.6,0,1.08.17,1.46.5Z"/>
    <path class="uuid-5a31d324-d1c4-4b84-846d-2bb2fb4cfa11" d="m25.81,98.15v-5.72h.78v5.01h2.58v.7h-3.36Z"/>
    <path class="uuid-5a31d324-d1c4-4b84-846d-2bb2fb4cfa11" d="m31.6,98.15v-5.72h.78v5.72h-.78Z"/>
    <path class="uuid-5a31d324-d1c4-4b84-846d-2bb2fb4cfa11" d="m38.98,98.23l-2.95-4.18v4.1h-.74v-5.72h.31l2.88,3.95v-3.95h.74v5.8h-.23Z"/>
    <path class="uuid-5a31d324-d1c4-4b84-846d-2bb2fb4cfa11" d="m42.76,93.14v1.59h1.89v.66h-1.89v2.06h2.59v.7h-3.37v-5.72h3.41v.7h-2.63Z"/>
    <path class="uuid-5a31d324-d1c4-4b84-846d-2bb2fb4cfa11" d="m55.14,98.15v-2.76h-2.5v2.76h-.78v-5.72h.78v2.29h2.5v-2.29h.78v5.72h-.78Z"/>
    <path class="uuid-5a31d324-d1c4-4b84-846d-2bb2fb4cfa11" d="m59.47,93.14v1.59h1.89v.66h-1.89v2.06h2.59v.7h-3.37v-5.72h3.41v.7h-2.63Z"/>
    <path class="uuid-5a31d324-d1c4-4b84-846d-2bb2fb4cfa11" d="m67.74,98.15l-1.53-2.45c-.17,0-.45-.01-.83-.04v2.49h-.78v-5.72s.23,0,.61-.03c.38-.02.65-.03.82-.03,1.37,0,2.06.55,2.06,1.64,0,.36-.11.68-.33.97-.22.29-.48.47-.79.54l1.66,2.63h-.89Zm-2.35-5.01v1.86c.19.03.37.04.55.04.47,0,.81-.08,1.02-.23.21-.15.32-.42.32-.81,0-.32-.12-.55-.34-.69-.23-.14-.59-.21-1.08-.21-.08,0-.23.01-.46.04Z"/>
    <path class="uuid-5a31d324-d1c4-4b84-846d-2bb2fb4cfa11" d="m71.6,93.14v1.59h1.89v.66h-1.89v2.06h2.59v.7h-3.37v-5.72h3.41v.7h-2.63Z"/>
  </g>
</svg>